<?xml version="1.0" standalone="no"?>
<!DOCTYPE svg PUBLIC "-//W3C//DTD SVG 20010904//EN"
 "http://www.w3.org/TR/2001/REC-SVG-20010904/DTD/svg10.dtd">
<svg version="1.0" xmlns="http://www.w3.org/2000/svg"
 width="500.000000pt" height="500.000000pt" viewBox="0 0 500.000000 500.000000"
 preserveAspectRatio="xMidYMid meet">

<g transform="translate(0.000000,500.000000) scale(0.100000,-0.100000)"
fill="#000000" stroke="none">
<path d="M2283 4382 c-616 -73 -1130 -393 -1473 -917 -65 -99 -158 -291 -200
-410 -216 -619 -111 -1323 277 -1850 77 -105 308 -339 405 -410 159 -118 378
-237 526 -287 23 -8 39 -18 35 -23 -5 -4 -3 -5 4 -1 6 3 51 -5 99 -19 175 -51
303 -68 514 -69 230 -1 303 5 457 40 229 51 463 148 653 271 289 188 551 475
695 763 21 41 43 78 49 82 6 4 8 8 3 8 -4 0 -1 13 7 28 29 56 95 262 120 374
39 179 49 292 43 482 -13 395 -114 721 -323 1043 -29 45 -49 85 -46 90 4 4 3
5 -2 0 -5 -4 -17 4 -26 18 -68 103 -310 340 -433 424 -27 18 -45 37 -41 43 4
7 2 8 -4 4 -6 -4 -40 11 -74 33 -98 62 -302 157 -418 195 -188 61 -342 88
-553 95 -126 4 -222 2 -294 -7z m408 -122 c444 -45 860 -251 1174 -581 418
-439 595 -1060 474 -1663 -154 -767 -795 -1373 -1565 -1480 -128 -17 -109 -16
-304 -16 -384 0 -755 122 -1072 353 -38 27 -68 53 -68 58 0 5 -7 9 -15 9 -21
0 -249 226 -240 239 3 6 1 10 -5 9 -7 -2 -17 5 -23 16 -7 10 -22 30 -34 43
-135 151 -313 533 -348 747 -3 17 -12 67 -19 111 -86 483 57 1037 367 1435
125 159 298 318 467 429 163 107 415 214 602 256 184 41 418 54 609 35z"/>
<path d="M2245 3990 c-229 -46 -394 -149 -508 -318 -85 -125 -103 -243 -67
-435 19 -102 28 -127 69 -195 78 -128 87 -175 50 -278 -11 -32 -23 -93 -26
-134 -5 -70 -4 -77 18 -96 35 -32 76 -35 144 -12 52 17 67 18 111 9 69 -16 99
-47 90 -95 -6 -29 -3 -37 14 -46 19 -10 23 -7 37 30 22 55 39 46 36 -19 l-2
-52 45 -19 c56 -24 54 -24 54 1 0 24 17 59 30 59 4 0 11 -13 15 -29 19 -86 95
-47 95 48 0 24 14 2 31 -47 14 -41 20 -47 47 -50 24 -2 33 2 43 20 6 13 13 25
15 26 1 2 16 -6 32 -18 43 -32 59 -21 67 45 4 30 12 58 17 61 14 9 38 -16 38
-41 0 -13 3 -30 6 -39 9 -23 60 -20 77 4 8 11 17 17 22 12 4 -4 3 3 -4 15 -18
35 -13 77 12 100 52 48 109 64 161 46 60 -20 120 -17 151 10 l25 22 -25 100
c-30 115 -28 157 11 276 20 63 34 86 78 130 71 71 81 107 81 279 -1 115 -4
145 -24 200 -12 35 -32 77 -42 92 -11 15 -17 34 -13 40 4 7 4 10 -1 6 -4 -4
-38 21 -75 55 -225 208 -604 304 -935 237z m-2 -833 c30 -13 73 -41 96 -62 54
-49 55 -85 5 -144 -126 -147 -402 -127 -445 32 -22 82 23 174 95 197 56 17
188 5 249 -23z m718 23 c105 -29 139 -189 57 -269 -42 -41 -89 -56 -178 -55
-96 0 -165 28 -220 92 -54 61 -54 97 -1 145 22 20 55 44 73 53 73 38 197 54
269 34z m-439 -287 c34 -40 110 -184 104 -199 -9 -24 -66 -10 -89 21 -25 34
-53 31 -98 -10 -44 -39 -48 -40 -73 -22 -17 13 -17 16 9 68 74 146 112 182
147 142z"/>
<path d="M2010 2469 c-8 -18 -6 -69 9 -199 25 -214 26 -217 137 -246 96 -26
234 -83 234 -97 0 -6 3 -7 6 -4 4 3 16 0 28 -8 62 -44 280 21 331 99 23 34 79
75 107 78 13 2 28 7 33 11 6 4 19 14 30 21 22 15 22 35 8 221 -4 55 -7 105 -6
112 0 6 -6 14 -13 17 -18 7 -33 -23 -55 -108 -23 -90 -28 -94 -87 -73 -46 18
-47 18 -64 -4 -10 -12 -18 -27 -18 -35 0 -19 -16 -18 -51 3 -24 14 -33 15 -47
5 -31 -22 -45 -25 -64 -13 -13 8 -24 8 -37 1 -14 -7 -25 -5 -44 10 -29 23 -45
25 -70 5 -14 -10 -26 -11 -48 -3 -24 8 -34 7 -48 -6 -25 -23 -38 -20 -53 12
-11 22 -21 28 -62 33 -59 6 -78 26 -95 102 -6 30 -21 63 -31 72 -18 17 -20 16
-30 -6z"/>
<path d="M1020 1535 l0 -135 94 0 c85 0 98 3 122 23 33 29 35 69 4 103 -13 13
-19 24 -13 24 18 0 33 48 23 75 -13 35 -47 45 -146 45 l-84 0 0 -135z m138 79
c16 -5 22 -13 20 -28 -2 -16 -11 -22 -40 -24 -36 -3 -38 -2 -38 27 0 33 11 37
58 25z m21 -113 c27 -17 4 -41 -39 -41 -36 0 -40 2 -40 25 0 22 4 25 33 25 17
0 38 -4 46 -9z"/>
<path d="M1391 1608 c-16 -35 -42 -96 -59 -135 l-31 -73 39 0 c34 0 41 4 46
25 6 23 11 25 65 25 54 0 60 -2 69 -25 8 -20 16 -25 45 -25 22 0 35 5 34 13 0
6 -24 66 -53 132 l-52 120 -37 3 c-37 3 -38 3 -66 -60z m82 -65 l17 -43 -35 0
c-19 0 -35 4 -35 9 0 12 31 84 34 80 1 -2 10 -23 19 -46z"/>
<path d="M1650 1535 l0 -135 40 0 c41 0 45 6 41 53 -2 12 5 17 24 17 19 0 29
-8 42 -35 15 -31 21 -35 55 -35 21 0 38 4 38 8 0 4 -11 23 -24 42 l-24 35 24
28 c34 41 32 90 -5 128 -28 28 -33 29 -120 29 l-91 0 0 -135z m166 48 c8 -31
-15 -53 -58 -53 -26 0 -28 3 -28 40 0 40 0 40 40 40 35 0 40 -3 46 -27z"/>
<path d="M1960 1534 l0 -136 101 4 c92 3 103 5 120 27 25 30 24 66 -2 92 -19
19 -19 22 -5 38 24 27 20 67 -10 90 -23 18 -41 21 -115 21 l-89 0 0 -136z
m154 66 c16 -16 -14 -40 -50 -40 -29 0 -34 3 -34 23 0 13 3 27 7 31 9 9 64 -1
77 -14z m4 -117 c3 -21 -1 -23 -42 -23 -43 0 -46 2 -46 26 0 23 3 25 43 22 35
-2 43 -7 45 -25z"/>
<path d="M2260 1535 l0 -135 116 0 115 0 -3 28 c-3 26 -5 27 -75 30 -70 3 -73
4 -73 27 0 24 3 25 66 25 l65 0 -3 28 c-3 26 -6 27 -65 30 -55 3 -63 6 -63 22
0 18 7 20 70 20 l70 0 0 30 0 30 -110 0 -110 0 0 -135z"/>
<path d="M2550 1535 l0 -135 40 0 c39 0 40 1 40 35 0 31 3 35 25 35 19 0 29
-9 42 -34 11 -25 24 -35 44 -38 49 -7 56 6 27 49 l-26 39 24 27 c34 40 32 90
-5 128 -28 28 -33 29 -120 29 l-91 0 0 -135z m166 48 c8 -31 -15 -53 -58 -53
-26 0 -28 3 -28 40 0 40 0 40 40 40 35 0 40 -3 46 -27z"/>
<path d="M2950 1640 c0 -28 2 -30 40 -30 l40 0 0 -105 0 -105 35 0 35 0 0 104
0 105 43 3 c38 3 42 6 45 31 l3 27 -120 0 -121 0 0 -30z"/>
<path d="M3240 1535 l0 -135 35 0 35 0 0 135 0 135 -35 0 -35 0 0 -135z"/>
<path d="M3388 1633 c-2 -21 -2 -82 0 -135 l3 -98 30 0 29 0 0 83 c1 61 3 77
11 64 5 -9 7 -22 4 -27 -3 -6 -2 -10 2 -10 5 0 19 -21 31 -46 32 -66 57 -59
93 26 l28 65 1 -77 0 -78 35 0 35 0 0 135 0 135 -40 0 -41 0 -35 -77 -36 -78
-35 78 c-35 76 -36 77 -74 77 -36 0 -38 -1 -41 -37z"/>
<path d="M3770 1535 l0 -135 111 0 110 0 -3 28 c-3 26 -5 27 -75 30 -70 3 -73
4 -73 27 0 24 3 25 65 25 l65 0 0 30 0 30 -65 0 c-58 0 -65 2 -65 20 0 18 7
20 70 20 l70 0 0 30 0 30 -105 0 -105 0 0 -135z"/>
<path d="M2021 1106 c-17 -21 -7 -44 24 -56 36 -14 32 -34 -6 -26 -22 4 -29 2
-27 -7 6 -18 62 -21 77 -4 15 19 4 47 -25 58 -33 12 -31 33 2 25 19 -5 25 -3
22 6 -7 19 -53 21 -67 4z"/>
<path d="M2120 1060 c0 -47 3 -60 15 -60 12 0 15 13 15 60 0 47 -3 60 -15 60
-12 0 -15 -13 -15 -60z"/>
<path d="M2180 1060 c0 -46 3 -60 14 -60 10 0 16 13 18 38 l3 37 23 -37 c36
-57 52 -50 52 22 0 47 -3 60 -15 60 -11 0 -15 -11 -15 -37 l0 -38 -25 38 c-39
56 -55 49 -55 -23z"/>
<path d="M2342 1113 c-41 -16 -31 -98 12 -109 30 -7 69 4 60 17 -3 5 -15 7
-25 4 -26 -8 -49 11 -49 41 0 23 30 41 50 29 5 -3 15 -3 21 1 25 15 -35 31
-69 17z"/>
<path d="M2438 1093 c-2 -16 -1 -43 1 -60 3 -32 5 -33 47 -33 24 0 44 5 44 10
0 6 -13 10 -30 10 -20 0 -30 5 -30 15 0 9 9 15 25 15 14 0 25 5 25 10 0 6 -11
10 -25 10 -16 0 -25 6 -25 15 0 10 10 15 30 15 17 0 30 5 30 10 0 6 -20 10
-44 10 -41 0 -45 -2 -48 -27z"/>
<path d="M2617 1113 c-15 -14 -6 -23 18 -17 16 4 25 2 25 -6 0 -6 -11 -26 -25
-44 -14 -18 -25 -36 -25 -39 0 -4 18 -7 40 -7 22 0 40 5 40 10 0 6 -12 10 -26
10 l-26 0 26 31 c14 17 26 34 26 38 0 23 -56 42 -73 24z"/>
<path d="M2726 1098 c-9 -12 -16 -29 -16 -38 0 -45 59 -77 88 -48 16 16 16 80
0 96 -19 19 -55 14 -72 -10z m59 -18 c9 -29 -4 -62 -23 -58 -18 3 -28 39 -18
64 8 21 34 17 41 -6z"/>
<path d="M2830 1110 c0 -5 5 -10 10 -10 6 0 10 -22 10 -50 0 -27 5 -50 10 -50
6 0 10 27 10 60 0 53 -2 60 -20 60 -11 0 -20 -4 -20 -10z"/>
<path d="M2920 1105 c-9 -11 -10 -19 -2 -27 8 -8 8 -15 0 -28 -17 -27 -3 -50
30 -50 35 0 57 23 47 47 -4 10 -8 29 -9 43 -1 19 -7 26 -27 28 -14 2 -31 -4
-39 -13z m50 -14 c0 -14 -18 -23 -30 -16 -6 4 -8 11 -5 16 8 12 35 12 35 0z
m0 -56 c0 -8 -9 -15 -20 -15 -11 0 -20 7 -20 15 0 8 9 15 20 15 11 0 20 -7 20
-15z"/>
</g>
</svg>
